<svg width="48" height="49" viewBox="0 0 48 49" fill="none" xmlns="http://www.w3.org/2000/svg">
<path d="M40.1325 26.195C41.07 25.2575 41.07 23.735 40.1325 22.7975L28.1325 10.7975C27.195 9.86 25.6725 9.86 24.735 10.7975C23.7975 11.735 23.7975 13.2575 24.735 14.195L35.04 24.5L24.7425 34.805C23.805 35.7425 23.805 37.265 24.7425 38.2025C25.68 39.14 27.2025 39.14 28.14 38.2025L40.14 26.2025L40.1325 26.195ZM13.7325 38.195L25.7325 26.195C26.67 25.2575 26.67 23.735 25.7325 22.7975L13.7325 10.7975C12.795 9.86 11.2725 9.86 10.335 10.7975C9.39746 11.735 9.39746 13.2575 10.335 14.195L20.64 24.5L10.3425 34.805C9.40496 35.7425 9.40496 37.265 10.3425 38.2025C11.28 39.14 12.8025 39.14 13.74 38.2025L13.7325 38.195Z" fill="white"/>
</svg>
