<svg width="36" height="36" viewBox="0 0 36 36" fill="none" xmlns="http://www.w3.org/2000/svg">
<path d="M1.35 2.7C0.601875 2.7 0 3.30187 0 4.05C0 4.79812 0.601875 5.4 1.35 5.4H3.89812C4.1175 5.4 4.30312 5.5575 4.3425 5.77125L7.27312 21.8756C7.62187 23.7994 9.29812 25.2 11.2556 25.2H25.65C26.3981 25.2 27 24.5981 27 23.85C27 23.1019 26.3981 22.5 25.65 22.5H11.2556C10.6031 22.5 10.0462 22.0331 9.92812 21.3919L9.64125 19.8H26.7187C28.4512 19.8 29.9362 18.5681 30.2569 16.8637L32.0006 7.53187C32.2087 6.42375 31.3594 5.4 30.2287 5.4H7.01437L6.99187 5.2875C6.72187 3.79125 5.41687 2.7 3.8925 2.7H1.35ZM11.7 32.4C13.1906 32.4 14.4 31.1906 14.4 29.7C14.4 28.2094 13.1906 27 11.7 27C10.2094 27 9 28.2094 9 29.7C9 31.1906 10.2094 32.4 11.7 32.4ZM24.3 32.4C25.7906 32.4 27 31.1906 27 29.7C27 28.2094 25.7906 27 24.3 27C22.8094 27 21.6 28.2094 21.6 29.7C21.6 31.1906 22.8094 32.4 24.3 32.4Z" fill="white"/>
</svg>
