<svg width="32" height="33" viewBox="0 0 32 33" fill="none" xmlns="http://www.w3.org/2000/svg">
<path d="M16.0002 29.3C23.0702 29.3 28.8002 23.57 28.8002 16.5C28.8002 9.43 23.0702 3.7 16.0002 3.7C8.9302 3.7 3.2002 9.43 3.2002 16.5C3.2002 23.57 8.9302 29.3 16.0002 29.3ZM18.5352 19.955L11.3202 22.73C10.3502 23.105 9.3952 22.15 9.7702 21.18L12.5452 13.965C12.7102 13.54 13.0402 13.21 13.4652 13.045L20.6802 10.27C21.6502 9.895 22.6052 10.85 22.2302 11.82L19.4552 19.035C19.2952 19.46 18.9602 19.79 18.5352 19.955ZM17.6002 16.5C17.6002 15.615 16.8852 14.9 16.0002 14.9C15.1152 14.9 14.4002 15.615 14.4002 16.5C14.4002 17.385 15.1152 18.1 16.0002 18.1C16.8852 18.1 17.6002 17.385 17.6002 16.5Z" fill="#2E372B"/>
</svg>
