<svg width="32" height="33" viewBox="0 0 32 33" fill="none" xmlns="http://www.w3.org/2000/svg">
<path d="M24 14.1C24 16.395 23.255 18.515 22 20.235L28.33 26.57C28.955 27.195 28.955 28.21 28.33 28.835C27.705 29.46 26.69 29.46 26.065 28.835L19.735 22.5C18.015 23.755 15.895 24.5 13.6 24.5C7.85501 24.5 3.20001 19.845 3.20001 14.1C3.20001 8.355 7.85501 3.7 13.6 3.7C19.345 3.7 24 8.355 24 14.1ZM13.6 21.3C17.575 21.3 20.8 18.075 20.8 14.1C20.8 10.125 17.575 6.9 13.6 6.9C9.62501 6.9 6.40001 10.125 6.40001 14.1C6.40001 18.075 9.62501 21.3 13.6 21.3Z" fill="#3B4A34"/>
</svg>
