<svg width="175" height="65" viewBox="0 0 175 65" fill="none" xmlns="http://www.w3.org/2000/svg">
<path d="M14.112 44.392C17.824 44.392 19.68 42.808 19.68 39.64C19.68 38.296 18.976 37.16 17.568 36.232C16.544 35.528 15.136 34.776 13.344 33.976C11.584 33.144 10.256 32.488 9.36 32.008C8.496 31.528 7.488 30.856 6.336 29.992C4.128 28.296 3.024 26.184 3.024 23.656C3.024 21.128 4 19.032 5.952 17.368C7.936 15.672 10.608 14.824 13.968 14.824C17.328 14.824 20.912 15.896 24.72 18.04C24.72 20.344 24.48 22.84 24 25.528C22.976 25.848 21.456 26.008 19.44 26.008L18.048 20.296C16.864 19.944 15.568 19.768 14.16 19.768C12.752 19.768 11.664 20.072 10.896 20.68C10.128 21.288 9.744 22.2 9.744 23.416C9.744 24.6 10.336 25.672 11.52 26.632C12.736 27.56 14.192 28.424 15.888 29.224C17.584 29.992 18.752 30.536 19.392 30.856C20.032 31.176 20.848 31.656 21.84 32.296C22.832 32.936 23.584 33.544 24.096 34.12C25.408 35.656 26.064 37.368 26.064 39.256C26.064 42.584 24.96 45.144 22.752 46.936C20.544 48.728 17.664 49.624 14.112 49.624C12.224 49.624 10.144 49.304 7.872 48.664C5.632 47.992 3.728 47.144 2.16 46.12C2.224 44.168 2.48 41.528 2.928 38.2C4.208 37.944 5.744 37.816 7.536 37.816L8.544 43.576C10.304 44.12 12.16 44.392 14.112 44.392ZM51.9476 24.424C52.5556 24.424 52.9396 24.44 53.0996 24.472C53.0996 26.104 52.8276 27.512 52.2836 28.696C52.0916 35.736 51.9316 40.936 51.8036 44.296C53.2436 44.424 54.5076 44.664 55.5956 45.016L55.4996 48.376C53.5476 48.984 51.8676 49.288 50.4596 49.288C49.0516 49.288 48.0916 49.256 47.5796 49.192C47.1956 48.424 46.8756 47.656 46.6196 46.888C43.9636 48.68 42.0436 49.576 40.8596 49.576C35.1316 49.576 32.2676 46.68 32.2676 40.888C32.2676 39.32 32.3956 35.464 32.6516 29.32C30.9556 29.32 29.4036 29.096 27.9956 28.648C27.9956 27.848 28.1076 26.696 28.3316 25.192C30.2196 24.68 33.4516 24.424 38.0276 24.424C38.6356 24.424 39.0196 24.44 39.1796 24.472C39.1796 26.04 38.9076 27.496 38.3636 28.84V38.536C38.3636 40.584 38.5716 42.088 38.9876 43.048C39.4356 43.976 40.3636 44.44 41.7716 44.44C43.2116 44.44 44.6836 43.944 46.1876 42.952L45.8996 29.32C44.4916 29.256 43.1636 29.032 41.9156 28.648C41.9156 27.848 42.0276 26.696 42.2516 25.192C44.1396 24.68 47.3716 24.424 51.9476 24.424ZM70.7985 28.024L70.0305 27.976C68.2385 27.976 66.7985 28.6 65.7105 29.848C64.6545 31.064 64.1265 33.128 64.1265 36.04C64.1265 38.92 64.5265 41.112 65.3265 42.616C66.1585 44.12 67.7425 44.872 70.0785 44.872C71.1665 44.872 73.4705 44.136 76.9905 42.664C77.7905 43.784 78.2225 44.952 78.2865 46.168C76.5265 47.256 74.7985 48.104 73.1025 48.712C71.4385 49.32 70.2545 49.624 69.5505 49.624C65.6145 49.624 62.6705 48.552 60.7185 46.408C58.7665 44.232 57.7905 41.192 57.7905 37.288C57.7905 28.456 61.7745 24.04 69.7425 24.04C71.1185 24.04 72.5265 24.216 73.9665 24.568C75.4385 24.888 76.5905 25.304 77.4225 25.816C77.3265 29.016 76.9745 31.336 76.3665 32.776C75.3105 33.032 73.8225 33.16 71.9025 33.16L70.7985 28.024ZM94.3511 29.224C94.2871 29.064 93.9671 28.984 93.3911 28.984C92.8151 28.984 91.8231 29.416 90.4151 30.28C90.2871 36.552 90.2071 41.256 90.1751 44.392L93.9191 44.872C93.9191 46.248 93.5511 47.624 92.8151 49H80.8631L80.4311 46.36C82.4151 45.624 83.8551 45.144 84.7511 44.92L84.2231 29.368C82.5591 29.24 81.1671 29 80.0471 28.648L80.3831 25.192C81.2471 24.808 84.3671 24.552 89.7431 24.424C90.0311 24.712 90.1751 25.272 90.1751 26.104C92.9911 24.728 94.7671 24.04 95.5031 24.04C96.2711 24.04 97.1991 24.232 98.2871 24.616C99.4071 24.968 100.255 25.352 100.831 25.768V26.584C100.831 29.208 100.511 31.64 99.8711 33.88C99.3271 34.104 98.6071 34.216 97.7111 34.216C96.8151 34.216 95.9831 34.168 95.2151 34.072C95.1191 33.656 94.8311 32.04 94.3511 29.224ZM114.426 27.88C113.274 27.88 111.962 28.168 110.49 28.744C110.074 29.384 109.674 30.52 109.29 32.152C108.938 33.752 108.762 35.368 108.762 37C108.762 40.008 109.21 42.152 110.106 43.432C111.002 44.68 112.442 45.304 114.426 45.304C116.442 45.304 117.898 44.68 118.794 43.432C119.69 42.152 120.138 39.976 120.138 36.904C120.138 33.8 119.674 31.528 118.746 30.088C117.85 28.616 116.41 27.88 114.426 27.88ZM114.426 24.04C118.17 24.04 121.178 25.192 123.45 27.496C125.754 29.768 126.906 32.952 126.906 37.048C126.906 41.112 125.77 44.216 123.498 46.36C121.226 48.504 118.202 49.576 114.426 49.576C110.65 49.576 107.626 48.504 105.354 46.36C103.114 44.216 101.994 41.112 101.994 37.048C101.994 32.952 103.13 29.768 105.402 27.496C107.674 25.192 110.682 24.04 114.426 24.04ZM145.246 26.104L145.294 27.592C145.294 30.088 145.102 31.72 144.718 32.488C143.662 32.872 142.19 33.064 140.302 33.064L138.766 28.216C138.35 28.056 137.774 27.976 137.038 27.976C136.302 27.976 135.694 28.2 135.214 28.648C134.766 29.096 134.542 29.624 134.542 30.232C134.542 30.84 134.782 31.4 135.262 31.912C135.742 32.392 136.238 32.776 136.75 33.064C137.262 33.352 137.998 33.736 138.958 34.216C139.95 34.664 140.686 35.016 141.166 35.272C141.678 35.528 142.318 35.912 143.086 36.424C143.886 36.936 144.494 37.416 144.91 37.864C145.934 39.08 146.446 40.408 146.446 41.848C146.446 44.312 145.502 46.216 143.614 47.56C141.758 48.904 139.47 49.576 136.75 49.576C135.31 49.576 133.726 49.32 131.998 48.808C130.302 48.296 128.862 47.608 127.678 46.744C127.678 44.44 127.902 42.296 128.35 40.312C129.63 40.152 130.67 40.072 131.47 40.072C132.27 40.072 132.814 40.088 133.102 40.12L133.678 44.776C134.478 45.064 135.438 45.208 136.558 45.208C137.678 45.208 138.558 44.984 139.198 44.536C139.87 44.088 140.206 43.464 140.206 42.664C140.206 41.832 139.838 41.144 139.102 40.6C138.366 40.056 137.358 39.496 136.078 38.92C134.798 38.312 133.806 37.816 133.102 37.432C132.398 37.016 131.646 36.488 130.846 35.848C129.214 34.6 128.398 33.064 128.398 31.24C128.398 28.968 129.182 27.208 130.75 25.96C132.35 24.68 134.494 24.04 137.182 24.04C139.87 24.04 142.558 24.728 145.246 26.104ZM162.053 44.872C163.141 44.872 165.349 44.12 168.677 42.616C169.381 43.64 169.909 44.824 170.261 46.168C168.501 47.256 166.773 48.104 165.077 48.712C163.413 49.288 162.229 49.576 161.525 49.576C157.653 49.576 154.709 48.504 152.693 46.36C150.709 44.216 149.717 41.176 149.717 37.24C149.717 33.272 150.709 30.088 152.693 27.688C154.677 25.256 157.621 24.04 161.525 24.04C164.629 24.04 166.997 25.048 168.629 27.064C170.261 29.08 171.077 31.704 171.077 34.936C171.077 35.608 170.693 36.376 169.925 37.24L156.101 37C156.165 39.56 156.645 41.512 157.541 42.856C158.437 44.2 159.941 44.872 162.053 44.872ZM161.093 28.024C159.877 28.024 158.741 28.264 157.685 28.744C156.949 30.28 156.485 31.704 156.293 33.016C158.789 32.92 161.621 32.856 164.789 32.824C164.629 29.624 163.397 28.024 161.093 28.024Z" fill="url(#paint0_linear_9_189)"/>
<path d="M178.057 54.2897C178.253 54.0945 178.253 53.7779 178.057 53.5826L174.875 50.4006C174.68 50.2054 174.363 50.2054 174.168 50.4006C173.973 50.5959 173.973 50.9125 174.168 51.1077L176.997 53.9362L174.168 56.7646C173.973 56.9599 173.973 57.2764 174.168 57.4717C174.363 57.667 174.68 57.667 174.875 57.4717L178.057 54.2897ZM27.7037 53.9362V54.4362H177.704V53.9362V53.4362H27.7037V53.9362Z" fill="url(#paint1_linear_9_189)"/>
<path d="M26.1951 53.4242C26.1951 54.897 27.389 56.0909 28.8618 56.0909C30.3345 56.0909 31.5285 54.897 31.5285 53.4242C31.5285 51.9515 30.3345 50.7576 28.8618 50.7576C27.389 50.7576 26.1951 51.9515 26.1951 53.4242ZM1.15808 49.2753L0.674323 49.4017L1.15808 49.2753ZM6.00623 37.52L6.50537 37.4906L6.00623 37.52ZM9.85939 46.1305C10.0321 45.915 9.99735 45.6003 9.78185 45.4277C9.56635 45.255 9.25168 45.2897 9.07901 45.5052L9.4692 45.8179L9.85939 46.1305ZM28.8618 53.4242L28.6385 52.9769C24.7501 54.918 18.7324 57.0283 13.3074 57.0905C10.599 57.1215 8.0775 56.6416 6.04383 55.4142C4.02409 54.1952 2.44261 52.2136 1.64184 49.1489L1.15808 49.2753L0.674323 49.4017C1.53578 52.6987 3.2672 54.9064 5.5271 56.2704C7.77308 57.6259 10.498 58.1228 13.3188 58.0904C18.9521 58.0259 25.1241 55.849 29.0851 53.8716L28.8618 53.4242ZM1.15808 49.2753L1.64184 49.1489C0.615472 45.2208 0.362573 41.8186 0.563709 39.1129C0.76573 36.3953 1.42256 34.4173 2.17763 33.3064C2.55716 32.7479 2.92835 32.4564 3.23221 32.3537C3.50095 32.2629 3.76559 32.301 4.04789 32.5415C4.35426 32.8026 4.68137 33.3088 4.95271 34.151C5.22144 34.9852 5.42216 36.1078 5.5071 37.5494L6.00623 37.52L6.50537 37.4906C6.41715 35.9933 6.20665 34.7822 5.90453 33.8444C5.60503 32.9147 5.20166 32.2108 4.69641 31.7803C4.16707 31.3294 3.53892 31.1946 2.91215 31.4063C2.32051 31.6062 1.7935 32.0926 1.35057 32.7442C0.460738 34.0535 -0.224333 36.2245 -0.433539 39.0388C-0.643629 41.865 -0.377084 45.3777 0.674323 49.4017L1.15808 49.2753ZM6.00623 37.52L5.5071 37.5494C5.64652 39.9158 5.87674 41.7087 6.16216 43.0501C6.44596 44.3839 6.79103 45.3045 7.18054 45.9011C7.57174 46.5002 8.06493 46.8486 8.63307 46.8297C9.16794 46.8119 9.5872 46.4702 9.85939 46.1305L9.4692 45.8179L9.07901 45.5052C8.88947 45.7417 8.71426 45.8265 8.59981 45.8303C8.51865 45.833 8.3077 45.7982 8.01785 45.3543C7.72632 44.9079 7.41342 44.1257 7.14026 42.842C6.86872 41.5658 6.64298 39.8263 6.50537 37.4906L6.00623 37.52Z" fill="white"/>
<defs>
<linearGradient id="paint0_linear_9_189" x1="180.074" y1="32.5" x2="0" y2="32.5" gradientUnits="userSpaceOnUse">
<stop stop-color="#6EE391"/>
<stop offset="1" stop-color="white"/>
</linearGradient>
<linearGradient id="paint1_linear_9_189" x1="177.704" y1="54.4362" x2="27.7037" y2="54.4362" gradientUnits="userSpaceOnUse">
<stop offset="0.394231" stop-color="#6EE391"/>
<stop offset="1" stop-color="white"/>
</linearGradient>
</defs>
</svg>
