<svg width="49" height="49" viewBox="0 0 49 49" fill="none" xmlns="http://www.w3.org/2000/svg">
<path d="M17.9525 5.74251L17.3 7.70001H10.1C8.77245 7.70001 7.69995 8.77251 7.69995 10.1C7.69995 11.4275 8.77245 12.5 10.1 12.5H38.8999C40.2274 12.5 41.2999 11.4275 41.2999 10.1C41.2999 8.77251 40.2274 7.70001 38.8999 7.70001H31.6999L31.0474 5.74251C30.7174 4.76001 29.8024 4.10001 28.7674 4.10001H20.2325C19.1975 4.10001 18.2825 4.76001 17.9525 5.74251ZM38.8999 16.1H10.1L11.6825 40.3325C11.8025 42.23 13.3775 43.7 15.275 43.7H33.7249C35.6224 43.7 37.1974 42.23 37.3174 40.3325L38.8999 16.1Z" fill="white"/>
</svg>
